<?xml version="1.0" encoding="utf-8" ?><!-- created by svgstack.com | Attribution is required. --><svg xmlns="http://www.w3.org/2000/svg" xmlns:xlink="http://www.w3.org/1999/xlink" width="1024" height="1024"><path transform="scale(2 2)" d="M237.595 61.7689C312.096 57.8736 378.282 114.727 388.908 188.249L413.314 188.231C423.615 188.224 433.163 187.115 440.48 196.095C447.345 204.52 443.425 209.629 444.266 218.644C446.627 243.971 448.546 257.378 447.003 283.97C446.421 293.997 447.546 302.729 439.925 310.568C434.091 316.569 435.239 321.292 433.012 329.036C422.478 365.675 389.2 387.133 351.467 383.328C351.234 388.585 351.453 393.948 351.456 399.215L351.466 431.02C351.466 436.221 351.912 441.695 351.467 446.859C347.841 450.929 341.54 449.516 336.614 449.509L250.312 449.492C244.683 449.492 212.484 450.105 209.803 448.944C203.664 446.286 208.814 422.868 205.23 414.021C199.046 398.757 187.961 403.231 176.525 406.082C155.917 411.219 122.353 415.885 112.541 391.036C108.657 381.201 110.822 372.314 114.869 363.01C111.899 359.111 103.449 352.848 102.065 349.059C100.836 345.694 107.239 339.718 109.033 335.532C87.5634 325.864 97.1404 329.639 102.22 312.271C88.0769 312.314 72.9036 313.772 67.6096 297.455C63.5252 284.866 71.8383 275.641 77.9878 265.618L91.4815 243.728C103.357 224.75 96.6174 230.042 94.8675 210.354C94.1475 202.254 95.3235 193.693 96.7397 185.719C107.439 125.47 152.899 77.4897 212.971 64.8294C221.139 63.108 229.304 62.499 237.595 61.7689ZM235.528 72.2471C194.971 76.2979 161.132 92.479 134.922 124.571C118.478 144.705 102.59 182.7 105.31 209.714C106.263 219.174 110.183 224.472 107.685 235.166C106.248 241.317 91.3336 264.249 87.4771 270.412C82.6236 278.169 70.7052 291.326 81.2571 299.505C89.0906 305.576 112.899 297.466 113.9 305.908C114.564 311.502 110.28 318.415 109.033 323.832C115.571 327.777 131.382 332.497 134.723 335.532C136.331 337.996 136.341 341.112 133.68 342.878C130.002 345.317 122.214 341.678 118.66 340.224C117.464 342.61 115.999 344.873 114.869 347.28C126.629 361.886 127.38 355.688 121.957 374.63C117.993 388.477 127.333 397.397 140.373 398.981C150.847 400.253 162.311 398.366 172.552 396.17C187.125 393.045 198.558 387.151 210.91 402.735C217.081 410.521 217.502 418.23 217.496 427.715L217.486 439.125L232.375 439.125L341.003 439.125L341.003 381.458C336.484 379.942 331.9 378.497 327.59 376.444C282.1 354.78 267.232 293.623 302.641 256.909C312.611 246.571 316.069 244.704 316.043 229.51C316.016 213.934 313.111 198.44 329.999 190.291C336.396 187.204 369.279 187.615 377.842 188.249C368.19 117.472 305.766 69.7346 235.528 72.2471ZM422.729 204.096C420.153 204.518 417.521 205.703 415.066 206.589C407.671 209.256 350.176 227.016 346.997 230.003C346.643 244.969 346.997 260.015 346.996 274.992L346.993 299.755C346.992 303.914 346.853 308.119 346.997 312.271C340.294 310.925 335.267 309.383 329.131 313.495C315.852 322.394 319.101 343.457 335.594 346.444C353.806 349.742 356.774 333.473 356.767 320.334L356.754 246.25L356.754 235.694L398.885 221.75C405.242 219.688 411.554 217.38 417.997 215.606L417.997 285.196C401.308 277.691 385.771 291.786 391.868 307.396C398.913 325.432 426.555 321.574 427.55 302.207C427.782 297.682 427.502 293.059 427.493 288.525L427.511 227.965C427.52 221.664 430.315 205.373 422.729 204.096Z"/><path transform="scale(2 2)" d="M281.672 137.102C294.886 133.545 302.508 157.361 283.982 158.865C267.342 159.503 265.888 138.668 281.672 137.102Z"/><path transform="scale(2 2)" d="M252.537 96.8088C270.425 95.167 273.183 118.238 256.054 120.679C239.131 121.853 236.075 100.605 252.537 96.8088Z"/><path transform="scale(2 2)" d="M327.789 124.303L330.968 124.303C333.562 125.228 334.035 126.332 334.279 128.984C334.751 134.118 335.097 157.03 334.208 161.036C332.632 168.134 325.393 170.581 318.938 168.852C305.558 163.721 310.164 146.262 324.428 146.768C324.532 140.026 321.677 127.375 327.789 124.303Z"/><path transform="scale(2 2)" d="M212.684 174.762C223.239 174.372 218.38 197.458 218.788 206.252C218.944 209.621 219.935 212.912 219.798 216.303C219.327 227.977 208.036 234.417 197.625 230.003C182.177 222.782 185.797 197.465 208.515 200.777C208.598 193.013 205.27 177.64 212.684 174.762Z"/><path transform="scale(2 2)" d="M169.728 109.604C176.511 109.269 183.489 109.598 190.293 109.6L226.803 109.544C233.809 109.569 236.53 115.244 230.482 119.966C225.754 120.242 220.892 119.978 216.146 119.976L188.585 119.962C183.892 119.958 179.176 119.816 174.486 119.966L174.486 129.501L211.591 129.485C217.356 129.484 224.494 129.02 230.128 129.626C235.437 130.197 235.144 138.991 229.757 139.747C226.411 140.216 222.655 139.888 219.273 139.887L197.625 139.869C189.921 139.875 182.185 139.681 174.486 139.869L174.486 170.972C189.64 195.295 157.359 213.602 143.679 193.273C134.284 179.311 147.574 161.093 164.639 164.643L164.631 130.454C164.631 123.902 161.726 110.767 169.728 109.604Z"/><path transform="scale(2 2)" d="M247.567 183.619C263.39 183.15 287.702 182.447 303.281 183.762C310.956 184.41 310.556 192.881 304.464 193.667C300.354 194.197 292.472 193.758 288.044 193.758L252.537 193.751C252.629 196.713 252.596 199.659 252.537 202.621C266.265 202.77 291.641 200.946 304.293 202.77C309.717 203.552 310.146 212.145 304.762 212.89C300.865 213.429 292.909 212.996 288.666 212.997L252.537 212.997C252.37 215.889 252.443 218.736 252.537 221.627L289.625 221.627C295.667 221.597 312.42 218.748 308.297 230.003C304.189 234.105 294.176 232.263 288.766 232.26L252.537 232.247C252.424 238.435 252.525 244.64 252.537 250.829C259.489 258.788 260.829 269.896 252.955 277.901C235.791 295.349 209.164 268.656 226.76 251.522C231.134 247.263 236.49 246.166 242.387 246.25L242.373 208.302C242.372 201.321 239.223 185.007 247.567 183.619Z"/></svg> 